<svg xmlns="http://www.w3.org/2000/svg" viewBox="0 0 137.45 137.37"><defs><style>.cls-1{fill:#f3f3f3;}.cls-2{fill:#527335;}.cls-3{fill:#3f4040;}</style></defs><title>Asset 8</title><g id="Layer_2" data-name="Layer 2"><g id="Layer_1-2" data-name="Layer 1"><path class="cls-1" d="M124.41,8.58H91.75V67.27s-1.64,16.46-8.36,16.46,22.93,4.13,30.54-.55,14.34-17.21,14.34-30S129.9,8.58,129.9,8.58Z"/><path class="cls-2" d="M10.75,8.58H43.42V67.27s1.64,16.46,8.36,16.46-22.94,4.13-30.55-.55S6.9,66,6.9,53.16,5.27,8.58,5.27,8.58Z"/><path class="cls-3" d="M100,94.24H37.49A37.54,37.54,0,0,1,0,56.75V0L53.15,0V66.92a15.57,15.57,0,0,0,31.13,0V0l53.17,0V56.75A37.54,37.54,0,0,1,100,94.24Zm-8.8-11.76H100a25.76,25.76,0,0,0,25.73-25.73v-45L96,11.76V66.92A27.19,27.19,0,0,1,91.16,82.48Zm-79.4-70.7v45A25.76,25.76,0,0,0,37.49,82.48h8.78A27.18,27.18,0,0,1,41.4,66.92V11.76Z"/><path class="cls-3" d="M68.72,137.37A16.38,16.38,0,1,1,85.1,121,16.39,16.39,0,0,1,68.72,137.37Zm0-21A4.62,4.62,0,1,0,73.34,121,4.62,4.62,0,0,0,68.72,116.37Z"/><rect class="cls-3" x="62.84" y="91.84" width="11.76" height="18.66"/></g></g></svg>