<svg xmlns="http://www.w3.org/2000/svg" viewBox="0 0 132.16 72.08"><defs><style>.cls-1{isolation:isolate;}.cls-2{fill:#527335;}.cls-3{fill:#3f4040;mix-blend-mode:multiply;}</style></defs><title>Asset 10</title><g class="cls-1"><g id="Layer_2" data-name="Layer 2"><g id="Layer_1-2" data-name="Layer 1"><path class="cls-2" d="M20.74,10.47h18.8L60.05,63.09H40.8l-2.75-7.73H21.33l-2.6,7.73H0Zm9.14,18.36-4.31,13h8.55Z"/><path class="cls-2" d="M109,64.58a36.39,36.39,0,0,1-6.28-.55,35.51,35.51,0,0,1-6-1.63,36.85,36.85,0,0,1-5.38-2.52,27.06,27.06,0,0,1-4.54-3.21L97.67,45a17.72,17.72,0,0,0,4.94,3.57A14,14,0,0,0,109,50.09a6.82,6.82,0,0,0,2.71-.53,1.91,1.91,0,0,0,1.23-1.93,2,2,0,0,0-.41-1.27,4.87,4.87,0,0,0-1.45-1.08,24.9,24.9,0,0,0-2.86-1.23q-1.83-.66-4.57-1.56a37.58,37.58,0,0,1-5.13-2.12,18,18,0,0,1-4.35-3,13.14,13.14,0,0,1-3-4.28,14.65,14.65,0,0,1-1.12-6,16.2,16.2,0,0,1,2-8.34,17.54,17.54,0,0,1,5.17-5.62A21.1,21.1,0,0,1,104.28,10a32.94,32.94,0,0,1,7.81-1,30.15,30.15,0,0,1,10.59,2,28.4,28.4,0,0,1,9.48,5.8L121.16,28a11.54,11.54,0,0,0-4.39-3.38,11.67,11.67,0,0,0-4.68-1.15A7.43,7.43,0,0,0,109,24a1.89,1.89,0,0,0-1.19,1.83A1.91,1.91,0,0,0,109,27.64a35,35,0,0,0,4,1.49c1.88.59,3.87,1.28,6,2.08a25.26,25.26,0,0,1,5.76,3.08A16.31,16.31,0,0,1,129,38.94a12.71,12.71,0,0,1,1.71,6.84,17.27,17.27,0,0,1-1.89,8.28,18,18,0,0,1-5,5.87,21.66,21.66,0,0,1-7,3.5A27.72,27.72,0,0,1,109,64.58Z"/><path class="cls-3" d="M68.77,31.58a12.51,12.51,0,0,0,2.77-2.87,5.72,5.72,0,0,0,1.09-3.27A5.26,5.26,0,0,0,71.39,22a4.82,4.82,0,0,0-3.91-1.49,5.88,5.88,0,0,0-4.75,2.28,10.17,10.17,0,0,0-2.08,6.14L38.17,26.34a29,29,0,0,1,3.57-11.79,27.17,27.17,0,0,1,7.18-8.21,29.28,29.28,0,0,1,9.6-4.81A39.23,39.23,0,0,1,69.46,0,41.67,41.67,0,0,1,79.71,1.29a28,28,0,0,1,9.06,4,21.08,21.08,0,0,1,6.43,7.08,20.9,20.9,0,0,1,2.48,10.49,23.54,23.54,0,0,1-1.14,7.67,21,21,0,0,1-3.07,5.89,29.19,29.19,0,0,1-4.36,4.66c-1.62,1.38-3.31,2.7-5.1,4L73.72,52.37H97.87V72.08H41V53.76Z"/></g></g></g></svg>