<svg xmlns="http://www.w3.org/2000/svg" viewBox="0 0 384.5 83.9"><defs><style>.cls-1{fill:#527335;}.cls-2{fill:#3f4040;}.cls-3{fill:#f3f3f3;}</style></defs><title>Asset 7</title><g id="Layer_2" data-name="Layer 2"><g id="Layer_1-2" data-name="Layer 1"><path class="cls-1" d="M109.18,1h12.14l13.25,34H122.14l-1.78-5h-10.8l-1.68,5H95.79Zm5.9,11.86-2.78,8.4h5.52Z"/><path class="cls-2" d="M150.41,15.31a6.06,6.06,0,0,0,1.34-1.39,2.77,2.77,0,0,0,.53-1.58,2.54,2.54,0,0,0-.6-1.68,2.32,2.32,0,0,0-1.89-.72,2.86,2.86,0,0,0-2.31,1.1,5,5,0,0,0-1,3l-10.89-1.25a14,14,0,0,1,1.73-5.71,13.17,13.17,0,0,1,3.48-4A14.32,14.32,0,0,1,145.44.74a19.17,19.17,0,0,1,5.3-.74,20.5,20.5,0,0,1,5,.62,13.63,13.63,0,0,1,4.4,1.95A10.28,10.28,0,0,1,163.22,6a10.14,10.14,0,0,1,1.21,5.09,11.37,11.37,0,0,1-.56,3.72,10.4,10.4,0,0,1-1.48,2.85,13.78,13.78,0,0,1-2.12,2.26c-.78.67-1.61,1.31-2.47,1.92l-5,3.55h11.71v9.55H137V26.06Z"/><path class="cls-2" d="M185.83,35.9a19.65,19.65,0,0,1-6.93-1.1,13.92,13.92,0,0,1-4.92-3,12,12,0,0,1-2.93-4.54,16.21,16.21,0,0,1-1-5.64V1h11.42V20.35a5.65,5.65,0,0,0,1.18,3.82,4.74,4.74,0,0,0,6.67,0,5.7,5.7,0,0,0,1.18-3.82V1h11.37V21.6a15.16,15.16,0,0,1-1,5.64,12.55,12.55,0,0,1-3,4.54,14.33,14.33,0,0,1-5,3A20.11,20.11,0,0,1,185.83,35.9Z"/><path class="cls-2" d="M207.77,1h11.37l9.7,17.23H229L228.55,1H239.4v34H227.74l-9.41-16.22h-.19l.48,16.22H207.77Z"/><path class="cls-2" d="M245.74,1h23.37v9.5H256.49v2.93h11.85v8.88H256.49v3.17h13.44v9.5H245.74Z"/><path class="cls-2" d="M274.68,34.94V1h12.67a36.38,36.38,0,0,1,7.71.79,18,18,0,0,1,6.48,2.74A14,14,0,0,1,306,9.65a17.41,17.41,0,0,1,1.68,8.11,17.35,17.35,0,0,1-1.6,7.73,15.26,15.26,0,0,1-4.3,5.35,18.38,18.38,0,0,1-6.19,3.1,26.37,26.37,0,0,1-7.3,1Zm11-24.28V25.1h2.11A9.63,9.63,0,0,0,294,23.36c1.45-1.17,2.17-3.07,2.17-5.72A6.37,6.37,0,0,0,294,12.5a8.52,8.52,0,0,0-5.75-1.84Z"/><path class="cls-1" d="M110.86,83.9a23.75,23.75,0,0,1-4.06-.35,22.19,22.19,0,0,1-3.84-1,25.25,25.25,0,0,1-3.48-1.63,17.28,17.28,0,0,1-2.93-2.08l7-7.56a11.23,11.23,0,0,0,3.2,2.31,9,9,0,0,0,4.1,1,4.51,4.51,0,0,0,1.75-.33,1.24,1.24,0,0,0,.79-1.25,1.32,1.32,0,0,0-.26-.82,3.11,3.11,0,0,0-.94-.7,15.65,15.65,0,0,0-1.84-.79c-.79-.29-1.77-.63-3-1A26.15,26.15,0,0,1,104,68.27a11.94,11.94,0,0,1-2.81-2,8.66,8.66,0,0,1-1.94-2.76,9.5,9.5,0,0,1-.72-3.88,10.41,10.41,0,0,1,1.3-5.38,11.27,11.27,0,0,1,3.33-3.63,13.64,13.64,0,0,1,4.59-2.05,21.32,21.32,0,0,1,5-.62,19.39,19.39,0,0,1,6.84,1.3A18.24,18.24,0,0,1,125.79,53l-7.11,7.25a7.49,7.49,0,0,0-2.83-2.19,7.68,7.68,0,0,0-3-.74,4.78,4.78,0,0,0-2,.36A1.22,1.22,0,0,0,110,58.9a1.24,1.24,0,0,0,.79,1.15,25.23,25.23,0,0,0,2.57,1c1.22.38,2.5.83,3.84,1.34a16.18,16.18,0,0,1,3.72,2,10.57,10.57,0,0,1,2.81,3,8.21,8.21,0,0,1,1.1,4.42,11.09,11.09,0,0,1-1.22,5.35,11.5,11.5,0,0,1-3.22,3.79A13.91,13.91,0,0,1,116,83.16,17.61,17.61,0,0,1,110.86,83.9Z"/><path class="cls-1" d="M127.8,65.76a18.18,18.18,0,0,1,1.44-7.37,16.42,16.42,0,0,1,4-5.59,17.46,17.46,0,0,1,6-3.55,23,23,0,0,1,15,0,17.65,17.65,0,0,1,6,3.55,16.23,16.23,0,0,1,4,5.59,18.18,18.18,0,0,1,1.44,7.37,18.7,18.7,0,0,1-1.44,7.44,16.83,16.83,0,0,1-4,5.74,17.92,17.92,0,0,1-6,3.67,22.36,22.36,0,0,1-15,0,17.73,17.73,0,0,1-6-3.67,17,17,0,0,1-4-5.74A18.7,18.7,0,0,1,127.8,65.76Zm12.15,0a8.87,8.87,0,0,0,.5,3.07,7.46,7.46,0,0,0,1.39,2.4A6.07,6.07,0,0,0,144,72.79a6.54,6.54,0,0,0,2.69.55,6.37,6.37,0,0,0,2.66-.55,6.45,6.45,0,0,0,2.14-1.56,7.15,7.15,0,0,0,1.41-2.4,8.87,8.87,0,0,0,.51-3.07,8.51,8.51,0,0,0-.51-3,6.42,6.42,0,0,0-1.41-2.3A6.49,6.49,0,0,0,149.33,59a6.68,6.68,0,0,0-2.66-.53A6.87,6.87,0,0,0,144,59a6.1,6.1,0,0,0-2.14,1.47,6.68,6.68,0,0,0-1.39,2.3A8.51,8.51,0,0,0,140,65.76Z"/><path class="cls-1" d="M170.38,49H181.9V73.1h11.28v9.84h-22.8Z"/><path class="cls-1" d="M210.84,83.9a19.61,19.61,0,0,1-6.93-1.1,13.92,13.92,0,0,1-4.92-3,12,12,0,0,1-2.93-4.54,16.21,16.21,0,0,1-1-5.64V49h11.42V68.35a5.65,5.65,0,0,0,1.18,3.82,4.74,4.74,0,0,0,6.67,0,5.7,5.7,0,0,0,1.18-3.82V49h11.37V69.6a15.16,15.16,0,0,1-1,5.64,12.67,12.67,0,0,1-3,4.54,14.43,14.43,0,0,1-5,3A20.15,20.15,0,0,1,210.84,83.9Z"/><path class="cls-1" d="M249.72,82.94H238.3V58.61h-8.36V49h28.13v9.65h-8.35Z"/><path class="cls-1" d="M261.58,49H273.1v34H261.58Z"/><path class="cls-1" d="M277.9,65.76a18.18,18.18,0,0,1,1.44-7.37,16.42,16.42,0,0,1,4-5.59,17.51,17.51,0,0,1,6-3.55,23.07,23.07,0,0,1,15,0,17.84,17.84,0,0,1,6,3.55,16.33,16.33,0,0,1,4,5.59,18.18,18.18,0,0,1,1.44,7.37,18.7,18.7,0,0,1-1.44,7.44,16.94,16.94,0,0,1-4,5.74,18.12,18.12,0,0,1-6,3.67,22.39,22.39,0,0,1-15,0,17.78,17.78,0,0,1-6-3.67,17,17,0,0,1-4-5.74A18.7,18.7,0,0,1,277.9,65.76Zm12.14,0a9.11,9.11,0,0,0,.5,3.07,7.3,7.3,0,0,0,1.4,2.4,6.13,6.13,0,0,0,2.13,1.56,6.54,6.54,0,0,0,2.69.55,6.33,6.33,0,0,0,2.66-.55,6.45,6.45,0,0,0,2.14-1.56,7.17,7.17,0,0,0,1.42-2.4,9.11,9.11,0,0,0,.5-3.07,8.74,8.74,0,0,0-.5-3A6.42,6.42,0,0,0,299.42,59a6.65,6.65,0,0,0-2.66-.53,6.87,6.87,0,0,0-2.69.53,6.16,6.16,0,0,0-2.13,1.47,6.54,6.54,0,0,0-1.4,2.3A8.74,8.74,0,0,0,290,65.76Z"/><path class="cls-1" d="M320.47,49h11.38l9.69,17.23h.2L341.26,49H352.1v34H340.44L331,66.72h-.19l.48,16.22H320.47Z"/><path class="cls-1" d="M369.58,83.9a23.75,23.75,0,0,1-4.06-.35,22.19,22.19,0,0,1-3.84-1,25.25,25.25,0,0,1-3.48-1.63,17.28,17.28,0,0,1-2.93-2.08l7-7.56a11.32,11.32,0,0,0,3.19,2.31,9,9,0,0,0,4.11,1,4.51,4.51,0,0,0,1.75-.33,1.24,1.24,0,0,0,.79-1.25,1.32,1.32,0,0,0-.26-.82,3.11,3.11,0,0,0-.94-.7,15.19,15.19,0,0,0-1.85-.79c-.78-.29-1.76-.63-2.95-1a26.15,26.15,0,0,1-3.31-1.37,11.74,11.74,0,0,1-2.81-2A8.66,8.66,0,0,1,358,63.56a9.5,9.5,0,0,1-.72-3.88,10.5,10.5,0,0,1,1.29-5.38,11.41,11.41,0,0,1,3.34-3.63,13.68,13.68,0,0,1,4.58-2.05,21.45,21.45,0,0,1,5-.62,19.39,19.39,0,0,1,6.84,1.3A18.24,18.24,0,0,1,384.5,53l-7.1,7.25a7.49,7.49,0,0,0-2.83-2.19,7.68,7.68,0,0,0-3-.74,4.76,4.76,0,0,0-2,.36,1.26,1.26,0,0,0,0,2.33,25.23,25.23,0,0,0,2.57,1c1.22.38,2.5.83,3.84,1.34a16.6,16.6,0,0,1,3.72,2,10.57,10.57,0,0,1,2.81,3,8.3,8.3,0,0,1,1.1,4.42,11.21,11.21,0,0,1-1.22,5.35,11.5,11.5,0,0,1-3.22,3.79,14,14,0,0,1-4.49,2.26A17.54,17.54,0,0,1,369.58,83.9Z"/><rect class="cls-2" y="0.93" width="81.93" height="81.93"/><path class="cls-1" d="M10.47,10.82H27.36V41.16s.85,8.51,4.32,8.51-11.86,2.13-15.79-.28-7.41-8.9-7.41-15.52-.84-23-.84-23Z"/><path class="cls-3" d="M57.11,55.1H24.82A19.4,19.4,0,0,1,5.44,35.72V6.4H32.92V41A8,8,0,0,0,49,41V6.39H76.49V35.72A19.4,19.4,0,0,1,57.11,55.1ZM52.57,49h4.54a13.31,13.31,0,0,0,13.3-13.3V12.47H55.09V41A14.1,14.1,0,0,1,52.57,49Zm-41-36.55V35.72A13.31,13.31,0,0,0,24.82,49h4.54a14,14,0,0,1-2.52-8V12.47Z"/><path class="cls-3" d="M41,77.4a8.47,8.47,0,1,1,8.46-8.47A8.48,8.48,0,0,1,41,77.4Zm0-10.86a2.39,2.39,0,1,0,2.38,2.39A2.39,2.39,0,0,0,41,66.54Z"/><rect class="cls-3" x="37.93" y="53.86" width="6.08" height="9.64"/></g></g></svg>