<svg xmlns="http://www.w3.org/2000/svg" viewBox="0 0 158.5 158.5"><defs><style>.cls-1{fill:#3f4040;}.cls-2{fill:#527335;}.cls-3{fill:#f3f3f3;}</style></defs><title>Asset 9</title><g id="Layer_2" data-name="Layer 2"><g id="Layer_1-2" data-name="Layer 1"><rect class="cls-1" width="158.5" height="158.5"/><path class="cls-2" d="M20.26,19.13H52.93V77.82s1.64,16.46,8.36,16.46-22.94,4.12-30.55-.55-14.33-17.22-14.33-30-1.64-44.58-1.64-44.58Z"/><path class="cls-3" d="M110.49,104.79H48A37.53,37.53,0,0,1,10.53,67.3V10.57l53.15,0V77.46a15.56,15.56,0,1,0,31.12,0V10.55l53.17,0V67.3A37.53,37.53,0,0,1,110.49,104.79ZM101.69,93h8.8A25.76,25.76,0,0,0,136.21,67.3v-45H106.56V77.46A27.21,27.21,0,0,1,101.69,93ZM22.29,22.32v45A25.76,25.76,0,0,0,48,93H56.8a27.14,27.14,0,0,1-4.88-15.57V22.31Z"/><path class="cls-3" d="M79.25,147.92a16.38,16.38,0,1,1,16.38-16.38A16.4,16.4,0,0,1,79.25,147.92Zm0-21a4.62,4.62,0,1,0,4.62,4.62A4.62,4.62,0,0,0,79.25,126.92Z"/><rect class="cls-3" x="73.37" y="102.38" width="11.76" height="18.66"/></g></g></svg>